<svg id="Layer_1" data-name="Layer 1" xmlns="http://www.w3.org/2000/svg" xmlns:xlink="http://www.w3.org/1999/xlink" viewBox="0 0 29.49 36.3"><defs><style>.cls-1{fill:url(#linear-gradient);}</style><linearGradient id="linear-gradient" x1="11.26" y1="13.69" x2="35.67" y2="30.24" gradientUnits="userSpaceOnUse"><stop offset="0.11" stop-color="#4480c2"/><stop offset="0.47" stop-color="#3780c2"/><stop offset="1" stop-color="#253e88"/></linearGradient></defs><path class="cls-1" d="M36.46,5.85H10.34v28.3a8.09,8.09,0,0,0,2.35,6h0a6.32,6.32,0,0,0,2.36,1.46,10.68,10.68,0,0,0,5.29.37c2.36-.27,2.57-.68,4.32-.86a13.05,13.05,0,0,1,5.39.66,6.47,6.47,0,0,0-.54-3.6,7,7,0,0,0-1.38-1.86c-2.9-2.59-7.76.3-9.91-1.8-.78-.77-.76-1.77-.72-4.5.08-5.66.06-11.33.19-17h15v2.74H23.33a1.28,1.28,0,0,0-1.28,1.29v3.24a1.28,1.28,0,0,0,1.28,1.29h9.31V42.05h7.19V9.23A3.37,3.37,0,0,0,36.46,5.85Z" transform="translate(-10.34 -5.85)"/></svg>