<svg id="Layer_1" data-name="Layer 1" xmlns="http://www.w3.org/2000/svg" viewBox="0 0 92.49 26.44"><defs><style>.cls-1,.cls-2{fill:#fff;}.cls-2{font-size:20.64px;font-family:GalanoGrotesqueAltDEMO-Bold, Galano Grotesque Alt DEMO;font-weight:700;}.cls-3{letter-spacing:0em;}</style></defs><path class="cls-1" d="M2.85,11.33" transform="translate(-18 -11.33)"/><text class="cls-2" transform="translate(20.84 21.28) scale(0.99 1)">Simbi<tspan class="cls-3" x="58.3" y="0">l</tspan><tspan x="65.26" y="0">l</tspan></text><path class="cls-1" d="M13.65,13" transform="translate(-18 -11.33)"/><path class="cls-1" d="M33.57,11.33H18V28.21a4.79,4.79,0,0,0,1.4,3.58h0a3.69,3.69,0,0,0,1.41.88,6.43,6.43,0,0,0,3.15.22c1.41-.16,1.53-.41,2.58-.51a7.64,7.64,0,0,1,3.21.39,3.75,3.75,0,0,0-.32-2.15,4.21,4.21,0,0,0-.83-1.11c-1.72-1.54-4.62.18-5.9-1.07-.47-.46-.46-1.06-.43-2.69.05-3.37,0-6.75.11-10.13H31.3v1.64H25.75A.76.76,0,0,0,25,18V20a.77.77,0,0,0,.77.77H31.3V32.92h4.29V13.35A2,2,0,0,0,33.57,11.33Z" transform="translate(-18 -11.33)"/></svg>