<svg id="Layer_1" data-name="Layer 1" xmlns="http://www.w3.org/2000/svg" xmlns:xlink="http://www.w3.org/1999/xlink" viewBox="0 0 92.49 26.44"><defs><style>.cls-1{font-size:20.64px;fill:#1c1c1c;font-family:GalanoGrotesqueAltDEMO-Bold, Galano Grotesque Alt DEMO;font-weight:700;}.cls-2{letter-spacing:0em;}.cls-3{fill:#fff;}.cls-4{fill:url(#linear-gradient);}</style><linearGradient id="linear-gradient" x1="19.44" y1="14.21" x2="31.73" y2="26.2" gradientUnits="userSpaceOnUse"><stop offset="0.11" stop-color="#3c69f7"/><stop offset="0.47" stop-color="#323cfc"/><stop offset="1" stop-color="#0808af"/></linearGradient></defs><text class="cls-1" transform="translate(20.84 21.28) scale(0.99 1)">Simbi<tspan class="cls-2" x="58.3" y="0">l</tspan><tspan x="65.26" y="0">l</tspan></text><path class="cls-3" d="M13.73,13" transform="translate(-18.08 -11.33)"/><path class="cls-4" d="M33.66,11.33H18.08V28.21a4.79,4.79,0,0,0,1.4,3.58h0a3.76,3.76,0,0,0,1.41.88,6.31,6.31,0,0,0,3.15.21c1.41-.15,1.53-.4,2.58-.5a7.68,7.68,0,0,1,3.22.39,3.87,3.87,0,0,0-.33-2.15,3.91,3.91,0,0,0-.82-1.11c-1.73-1.54-4.63.18-5.91-1.07-.47-.46-.45-1.06-.43-2.69,0-3.37,0-6.75.11-10.13h8.92v1.64H25.83a.77.77,0,0,0-.77.77V20a.78.78,0,0,0,.77.77h5.55V32.92h4.29V13.35A2,2,0,0,0,33.66,11.33Z" transform="translate(-18.08 -11.33)"/></svg>